<?xml version="1.0" encoding="UTF-8" standalone="no"?>
<svg
   xmlns:dc="http://purl.org/dc/elements/1.1/"
   xmlns:cc="http://creativecommons.org/ns#"
   xmlns:rdf="http://www.w3.org/1999/02/22-rdf-syntax-ns#"
   xmlns:svg="http://www.w3.org/2000/svg"
   xmlns="http://www.w3.org/2000/svg"
   viewBox="0 0 1701.8709 219.62586"
   version="1.1"
   width="1701.8752"
   height="219.62717"
   id="svg2">
  <defs
     id="defs4">
    <filter
       style="color-interpolation-filters:sRGB"
       id="filter4419">
      <feFlood
         flood-color="rgb(0,0,0)"
         flood-opacity=".29412"
         result="flood"
         id="feFlood4421" />
      <feComposite
         in="flood"
         in2="SourceGraphic"
         result="composite1"
         operator="in"
         id="feComposite4423" />
      <feGaussianBlur
         in="composite1"
         result="blur"
         stdDeviation="2"
         id="feGaussianBlur4425" />
      <feOffset
         dy="1"
         dx="2"
         result="offset"
         id="feOffset4427" />
      <feComposite
         in="SourceGraphic"
         in2="offset"
         result="composite2"
         operator="over"
         id="feComposite4429" />
    </filter>
  </defs>
  <metadata
     id="metadata7">
    <rdf:RDF>
      <cc:Work
         rdf:about="">
        <dc:format>image/svg+xml</dc:format>
        <dc:type
           rdf:resource="http://purl.org/dc/dcmitype/StillImage" />
        <dc:title></dc:title>
      </cc:Work>
    </rdf:RDF>
  </metadata>
  <g
     transform="translate(734.78497,-221.6802)"
     id="layer1">
    <g
       style="fill:#006da6;filter:url(#filter4419)"
       id="text3336">
      <path
         id="path4191"
         d="m -717.67877,440.10818 c -5.5287,-1.76305 -11.9005,-7.24115 -14.6178,-12.56743 -2.3757,-4.65677 -2.4884,-7.4317 -2.4884,-61.24319 0,-63.42868 0.3078,-66.37588 8.8556,-84.78824 15.0991,-32.52425 41.8643,-52.73081 77.6207,-58.60017 29.4712,-4.83767 63.4702,4.83908 87.29965,24.84716 l 8.91709,7.48711 6.46572,-6.08674 c 12.34293,-11.61944 24.32293,-18.40181 41.70631,-23.61166 9.19992,-2.75725 13.57728,-3.3181 26.63427,-3.41252 8.79111,-0.0636 18.9052,0.60979 23.12494,1.53958 38.60844,8.50714 69.72497,37.04884 80.80149,74.11536 2.4962,8.35327 2.78056,12.55732 3.26116,48.21362 l 0.5265,39.06241 54.697,0 c 51.4839,0 55.12482,-0.1472 61.98026,-2.50582 10.66628,-3.66973 16.56009,-7.53017 25.12355,-16.45587 8.43989,-8.79688 11.69195,-14.33244 14.8969,-25.35712 7.18096,-24.70163 -8.28819,-50.58326 -36.38829,-60.88169 -6.7072,-2.45813 -10.67184,-2.78007 -42.39898,-3.44296 -37.54556,-0.78446 -39.01579,-1.03836 -45.16618,-7.79999 -5.26292,-5.78597 -7.00608,-10.95969 -6.47941,-19.23096 0.67978,-10.6756 5.02148,-17.1838 14.29614,-21.42988 l 6.84325,-3.13294 39.00304,0.54445 c 34.8356,0.48627 40.0413,0.82821 48.72009,3.20022 19.9018,5.43939 40.81051,18.86948 53.45729,34.33673 7.80882,9.55032 17.90472,29.77284 20.73397,41.53103 3.09941,12.88088 2.78003,36.994 -0.66222,49.99987 -9.6494,36.45834 -36.75067,66.27647 -70.74612,77.83833 l -9.99998,3.401 -78.7498,0.39548 c -54.22446,0.27233 -80.1921,-0.0284 -83.38095,-0.96556 -6.25245,-1.83752 -12.11618,-7.00186 -14.89423,-13.1177 -2.08852,-4.59788 -2.29713,-9.09882 -2.32211,-50.10147 -0.0219,-35.83072 -0.40903,-46.51471 -1.89204,-52.20837 -5.22587,-20.06347 -20.47882,-36.68549 -39.22702,-42.74795 -9.84065,-3.18209 -23.87707,-2.15032 -33.27084,2.44563 -12.67205,6.19985 -24.5762,20.86121 -29.48218,36.31071 -1.12306,3.53668 -1.7988,20.21401 -2.30892,56.98503 l -0.72118,51.98505 -3.57882,5.16092 c -4.01873,5.79533 -13.99932,11.49786 -20.10405,11.48671 -11.20716,-0.0205 -22.79919,-8.24533 -25.54114,-18.1221 -0.90226,-3.24997 -1.38936,-21.44035 -1.39386,-52.05157 -0.01,-43.22778 -0.2067,-47.70198 -2.4622,-54.99987 -4.7249,-15.28858 -16.7808,-29.36593 -31.1857,-36.41483 -7.6052,-3.72153 -9.1886,-4.02922 -20.734,-4.02899 -11.0954,2.3e-4 -13.283,0.38505 -19.4685,3.4247 -12.8719,6.32545 -23.9181,19.56773 -28.9453,34.69995 -2.5361,7.63371 -2.7412,11.2364 -3.3927,59.58324 l -0.6933,51.45826 -3.75,5.30528 c -2.0625,2.9179 -5.9242,6.42854 -8.5816,7.80143 -5.4663,2.82405 -14.6961,3.81767 -19.9371,2.14633 z"
         style="fill:#ffffff;fill-opacity:1" />
      <path
         id="path4189"
         d="m -105.63353,432.57397 c -23.30084,-6.10759 -33.92742,-15.81918 -28.59431,-26.13227 3.93732,-7.61394 8.18136,-8.02927 20.87405,-2.04277 12.13035,5.72126 22.076165,8.16447 33.236015,8.16447 10.31729,0 20.68044,-3.06289 27.20755,-8.04136 6.04405,-4.61002 10.62973,-14.62501 10.59605,-23.14149 -0.0617,-15.61032 -7.89428,-23.74202 -35.60566,-36.96554 -10.53992,-5.02952 -22.162365,-11.06731 -25.827615,-13.41732 -9.29284,-5.95816 -17.48172,-14.65407 -21.77073,-23.1187 -3.44664,-6.80215 -3.64333,-8.03383 -3.64333,-22.81528 0,-14.71408 0.20495,-16.0141 3.51569,-22.30021 9.97258,-18.93495 28.810185,-28.90625 54.609165,-28.90625 17.06735,0 38.38396,6.54379 43.8172,13.45104 3.51833,4.47283 3.28381,12.77011 -0.46037,16.28759 -3.74235,3.51576 -8.26788,3.43803 -15.58595,-0.26771 -26.51511,-13.42675 -54.48712,-7.13627 -59.056295,13.28086 -1.28023,5.72074 -1.20121,7.86068 0.50742,13.7381 3.211715,11.04793 10.673365,16.92287 39.737285,31.28725 17.66506,8.73066 26.03712,13.62811 31.12287,18.20609 13.029,11.72819 18.46903,27.48599 16.07396,46.56043 -2.87708,22.91314 -19.45005,40.43375 -44.23127,46.76042 -10.73228,2.73996 -34.99654,2.43362 -46.521725,-0.58735 z"
         style="fill:#ffffff;fill-opacity:1" />
      <path
         id="path4187"
         d="m 179.31294,432.66147 c -25.21246,-6.19588 -36.83906,-18.80148 -26.69631,-28.94423 4.14608,-4.14609 9.20019,-4.76728 13.61698,-1.67364 1.55492,1.08911 7.44569,3.68338 13.0906,5.76506 22.88912,8.44084 46.79082,5.06842 57.11678,-8.05892 3.41812,-4.34542 6.27321,-12.677 6.26459,-18.28095 -0.0243,-15.76616 -7.57561,-23.38373 -37.69137,-38.02192 -25.84502,-12.56231 -35.00635,-19.00604 -42.07817,-29.59617 -6.69112,-10.02004 -8.23983,-15.62281 -8.13002,-29.41198 0.11463,-14.38832 3.2546,-23.06868 11.67919,-32.28653 10.90089,-11.92732 27.22967,-18.3045 46.85242,-18.29817 19.06875,0.006 41.04564,7.31312 45.00111,14.96214 2.81203,5.43788 2.36214,10.87287 -1.19441,14.42943 -4.11638,4.11638 -6.83359,3.88935 -19.38034,-1.61932 -10.11538,-4.44117 -11.3661,-4.68749 -23.80137,-4.68749 -11.05348,0 -13.9141,0.42469 -18.12495,2.69085 -6.67185,3.59059 -10.14632,7.51316 -12.45772,14.06436 -2.5294,7.16911 -2.38248,13.34937 0.46648,19.6227 4.30236,9.47364 11.36742,14.63075 38.33762,27.9844 28.76138,14.2405 37.12235,20.81303 43.74459,34.38745 3.42786,7.02651 3.65884,8.45103 3.65884,22.56477 0,14.89529 -0.0529,15.17177 -4.69896,24.5725 -7.62736,15.4329 -20.75341,25.6388 -39.00105,30.32447 -10.36512,2.66158 -34.7984,2.40517 -46.57453,-0.48878 z"
         style="fill:#ffffff;fill-opacity:1" />
      <path
         id="path4185"
         d="m 883.33597,434.22853 c -17.0121,-3.70739 -31.2032,-10.57436 -34.9458,-16.91004 -2.8516,-4.82744 -1.683,-11.28403 2.6608,-14.70091 4.054,-3.18877 8.6379,-3.24427 13.6866,-0.16568 8.1575,4.97422 22.1499,9.1153 33.0423,9.77894 24.5852,1.4979 40.3502,-9.14089 42.0973,-28.40887 1.5525,-17.12056 -5.9091,-25.14173 -37.7568,-40.58881 -29.539,-14.32732 -40.3304,-23.10166 -46.4629,-37.77884 -3.1622,-7.5684 -4.3727,-19.58737 -2.9008,-28.80155 4.2587,-26.65856 26.3944,-42.79552 58.7042,-42.79552 16.9243,0 36.4198,5.96478 43.118,13.19225 6.2229,6.71465 2.4769,19.26426 -5.7503,19.26426 -2.0355,0 -6.378,-1.35664 -9.6503,-3.01475 -10.5476,-5.34488 -19.6304,-7.33194 -30.7281,-6.72239 -11.7175,0.64357 -18.9154,3.70267 -23.6192,10.0381 -9.0448,12.18228 -7.6848,24.62409 3.9343,35.99131 5.8855,5.75794 11.2127,8.9624 31.7838,19.11879 27.5315,13.59292 35.9871,20.16255 42.9267,33.35232 3.443,6.544 3.61,18.77327 3.61,23.11134 0,4.33807 -0.068,16.38527 -4.256,24.73195 -7.3796,14.70719 -21.6827,25.66905 -39.4441,30.22985 -6.9889,1.79466 -33.4885,2.5081 -40.0497,1.07825 z"
         style="fill:#ffffff;fill-opacity:1" />
      <path
         id="path4183"
         d="m 59.920245,430.16813 -4.08222,-3.64523 -0.625,-36.04217 -0.62499,-36.04219 -26.21238,-52.18454 -26.2123501,-52.18454 1.83742,-5.31532 c 3.28158,-9.49296 14.6801801,-12.35713 21.3984501,-5.37686 2.79612,2.90516 28.13493,54.87194 37.51387,76.93636 2.77625,6.53123 5.43793,12.2928 5.91485,12.80348 0.47692,0.51068 3.05473,-4.27056 5.72846,-10.62497 10.12346,-24.05951 35.920485,-76.65786 38.925215,-79.36582 3.72961,-3.36126 12.22559,-3.82771 16.40455,-0.90065 1.50125,1.05152 3.29446,3.95776 3.98489,6.45832 1.62855,5.89811 -0.58298,10.96989 -30.14368,69.12964 l -22.554305,44.37489 0.8877,30.87441 c 0.64156,22.31344 0.48337,32.09957 -0.57051,35.29287 -3.20541,9.71247 -13.9576,12.6098 -21.56997,5.81232 z"
         style="fill:#ffffff;fill-opacity:1" />
      <path
         id="path4181"
         d="m 350.16363,431.98662 c -6.30897,-3.4324 -6.20973,-2.0635 -6.52796,-90.04805 l -0.29837,-82.49979 -26.82163,-0.33811 c -25.17089,-0.31731 -26.99151,-0.4977 -29.58167,-2.93104 -3.63956,-3.41919 -4.71492,-8.14694 -2.86753,-12.60694 3.02673,-7.30719 2.43537,-7.24886 73.4878,-7.24886 l 64.96602,0 3.84589,3.23611 c 5.06065,4.25825 5.41137,11.56201 0.77772,16.19566 -3.06769,3.0677 -3.07238,3.06818 -29.99993,3.06818 l -26.93174,0 0,83.24979 0,83.2498 -4.24999,4.24999 c -4.7062,4.7062 -10.08577,5.53134 -15.79861,2.42326 z"
         style="fill:#ffffff;fill-opacity:1" />
      <path
         id="path4179"
         d="m 608.96163,432.21504 c -1.71875,-0.85881 -4.11449,-3.52238 -5.32374,-5.91906 -2.04699,-4.05654 -2.17649,-10.56155 -1.87499,-94.15349 l 0.32375,-89.79588 3.65286,-3.14169 c 3.53124,-3.03705 4.13487,-3.12556 18.12496,-2.65735 15.51883,0.51936 20.85382,2.19367 24.44268,7.67095 1.028,1.56898 14.85622,35.72393 30.72943,75.8999 15.87321,40.17597 28.98329,73.17021 29.13369,73.32055 0.1504,0.15034 13.7492,-32.44074 30.2197,-72.42461 16.4704,-39.98388 31.0825,-74.41417 32.4711,-76.51175 4.2368,-6.39932 9.4996,-8.18463 24.1337,-8.18683 12.602,-0.002 12.9955,0.0849 16.5625,3.65189 l 3.6538,3.65384 0,90.84593 0,90.84593 -4.25,4.24999 c -3.0601,3.06011 -5.3683,4.24998 -8.2446,4.24998 -4.4108,0 -10.6358,-3.16729 -12.1536,-6.18383 -0.5372,-1.06763 -1.2579,-39.16579 -1.6017,-84.66258 l -0.625,-82.72143 -34.2543,84.9724 c -23.2968,57.79123 -35.0815,85.55188 -36.8405,86.78392 -3.0581,2.14204 -15.5439,2.43506 -19.86497,0.46622 -2.48549,-1.13246 -8.08185,-14.66624 -35.37128,-85.53845 l -32.41854,-84.19313 -0.625,80.85095 c -0.477,61.70164 -0.99738,81.50191 -2.19712,83.59935 -3.55674,6.21755 -11.1376,8.35871 -17.80283,5.02828 z"
         style="fill:#ffffff;fill-opacity:1" />
      <path
         id="path4159"
         d="m 457.53798,430.17414 -2.95096,-2.38919 -0.33676,-91.0431 c -0.238,-64.34022 0.0684,-92.02132 1.04472,-94.37833 2.45289,-5.92181 4.75814,-6.16518 54.76816,-5.78193 l 46.61737,0.35724 3.01562,3.5072 c 3.28411,3.81949 3.83599,8.24177 1.56149,12.51244 -3.03861,5.70523 -3.54099,5.77379 -42.60826,5.81556 l -37.18741,0.0397 0,30.76055 0,30.76054 31.77117,-0.44812 31.77117,-0.44812 3.22874,3.03038 c 4.40149,4.13114 4.47611,11.46081 0.16063,15.77639 l -3.06825,3.06817 -31.93173,0 -31.93173,0 0,34.32306 0,34.32305 38.23465,0.36436 38.23466,0.36436 3.01524,3.50719 c 3.28374,3.81958 3.83561,8.24195 1.56112,12.51245 -3.08774,5.79723 -2.87024,5.7737 -53.71976,5.81556 -45.72256,0.0376 -48.45631,-0.0876 -51.24988,-2.34946 z"
         style="fill:#ffffff;fill-opacity:1" />
    </g>
  </g>
</svg>
